<?xml version="1.0" encoding="utf-8"?>
<!-- Generator: Adobe Illustrator 26.3.1, SVG Export Plug-In . SVG Version: 6.00 Build 0)  -->
<svg version="1.1" id="Layer_1" xmlns="http://www.w3.org/2000/svg" xmlns:xlink="http://www.w3.org/1999/xlink" x="0px" y="0px"
	 viewBox="0 0 212.4 212.4" style="enable-background:new 0 0 212.4 212.4;" xml:space="preserve">
<style type="text/css">
	.st0{fill-rule:evenodd;clip-rule:evenodd;fill:#E7E7E7;}
	.st1{fill:#E7E7E7;}
</style>
<g>
	<path class="st0" d="M105.4,11.7c-52.8,0-95.6,42.8-95.6,95.6c0,42.3,27.4,78.1,65.4,90.8c4.8,0.9,6.5-2.1,6.5-4.6
		c0-2.3-0.1-9.8-0.1-17.8c-26.6,5.8-32.2-11.3-32.2-11.3c-4.4-11.1-10.6-14-10.6-14c-8.7-5.9,0.7-5.8,0.7-5.8
		c9.6,0.7,14.7,9.9,14.7,9.9c8.5,14.6,22.4,10.4,27.8,7.9c0.9-6.2,3.3-10.4,6.1-12.8c-21.2-2.4-43.6-10.6-43.6-47.3
		c0-10.4,3.7-19,9.9-25.7c-1-2.4-4.3-12.1,0.9-25.3c0,0,8-2.6,26.3,9.8C89,59,97.2,58,105.4,57.9c8.1,0,16.3,1.1,24,3.2
		c18.3-12.4,26.3-9.8,26.3-9.8c5.2,13.2,1.9,22.9,0.9,25.3c6.1,6.7,9.8,15.2,9.8,25.7c0,36.7-22.4,44.8-43.7,47.2
		c3.4,3,6.5,8.8,6.5,17.7c0,12.8-0.1,23.1-0.1,26.2c0,2.5,1.7,5.5,6.6,4.6c38-12.7,65.4-48.5,65.4-90.7
		C201,54.5,158.2,11.7,105.4,11.7z"/>
	<path class="st1" d="M45.9,149c-0.2,0.5-1,0.6-1.6,0.3c-0.7-0.3-1.1-1-0.9-1.4c0.2-0.5,1-0.6,1.6-0.3
		C45.8,147.9,46.2,148.5,45.9,149L45.9,149z M44.8,148.1"/>
	<path class="st1" d="M49.8,153.3c-0.5,0.4-1.3,0.2-2-0.4c-0.6-0.7-0.7-1.6-0.3-2c0.5-0.4,1.3-0.2,2,0.4
		C50.2,152,50.3,152.9,49.8,153.3L49.8,153.3z M48.9,152.3"/>
	<path class="st1" d="M53.6,158.8c-0.6,0.4-1.5,0-2.1-0.8c-0.6-0.9-0.6-1.9,0-2.3c0.6-0.4,1.5,0,2.1,0.8
		C54.2,157.4,54.2,158.4,53.6,158.8L53.6,158.8z M53.6,158.8"/>
	<path class="st1" d="M58.8,164.1c-0.5,0.6-1.6,0.4-2.5-0.4c-0.8-0.8-1.1-1.9-0.5-2.4c0.5-0.6,1.7-0.4,2.5,0.4
		C59.1,162.5,59.3,163.6,58.8,164.1L58.8,164.1z M58.8,164.1"/>
	<path class="st1" d="M65.9,167.2c-0.2,0.7-1.3,1.1-2.4,0.8c-1.1-0.3-1.8-1.2-1.6-2c0.2-0.8,1.3-1.1,2.4-0.8
		C65.4,165.6,66.1,166.5,65.9,167.2L65.9,167.2z M65.9,167.2"/>
	<path class="st1" d="M73.7,167.8c0,0.8-0.9,1.4-2,1.5c-1.1,0-2.1-0.6-2.1-1.4c0-0.8,0.9-1.4,2-1.5C72.8,166.4,73.7,167,73.7,167.8
		L73.7,167.8z M73.7,167.8"/>
	<path class="st1" d="M81,166.6c0.1,0.8-0.7,1.6-1.8,1.8c-1.1,0.2-2.1-0.3-2.3-1c-0.1-0.8,0.7-1.6,1.8-1.8
		C79.8,165.3,80.8,165.8,81,166.6L81,166.6z M81,166.6"/>
</g>
</svg>
